<svg width="141" height="177" viewBox="0 0 141 177" fill="none" xmlns="http://www.w3.org/2000/svg">
<path d="M25.5619 175.518L38.0619 138.518C40.5619 131.018 46.5619 128.018 50.5619 128.018H54.5619V121.518H89.5619V128.018H93.5619C97.5619 128.018 103.062 131.018 106.062 138.518L118.062 175.518H25.5619Z" fill="#444444"/>
<path d="M89.5619 128.018H93.5619C97.5619 128.018 103.062 131.018 106.062 138.518L118.062 175.518H25.5619L38.0619 138.518C40.5619 131.018 46.5619 128.018 50.5619 128.018H54.5619M89.5619 128.018V121.518H54.5619V128.018M89.5619 128.018H54.5619" stroke="#444444"/>
<path d="M28.0619 41.0179V89.5179H116.562V41.0179H28.0619Z" fill="#D2A795" stroke="#D2A795"/>
<path d="M28.0619 104.018V77.0179H30.5619C30.5759 84.734 33.0619 89.5179 41.0619 89.5179H104.062C109.562 89.5179 111.562 82.5179 111.562 77.0179H116.562V104.018C116.562 114.518 108.562 121.018 100.562 121.018H44.5619C35.5619 121.018 28.0619 113.518 28.0619 104.018Z" fill="#C99D8C" stroke="#C99D8C"/>
<path d="M57.5619 94.018C56.5619 92.4576 54.0619 94.0179 55.0619 95.518C59.3097 100.174 62.5127 101.444 69.5619 101.518C71.0619 101.518 71.0619 99.518 69.5619 99.518C62.8378 99.0575 60.0867 97.9574 57.5619 94.018Z" fill="#C28F79" stroke="#C28F79"/>
<path d="M66.5619 90.0179C67.1125 86.8431 70.0619 82.0179 70.5619 82.0179H71.0619C71.5619 82.0179 73.8178 86.3361 74.5619 90.0179C74.5619 95.5179 66.5619 95.5179 66.5619 90.0179Z" fill="#C28F79" stroke="#C28F79"/>
<path d="M27.0619 76.0419V104.518C10.5619 106.018 -0.43808 89.5179 9.56195 74.5179C-9.93808 57.0179 6.56194 19.5179 32.0619 23.518C44.562 2.01794 76.062 -13.9821 103.562 23.518C131.062 13.0179 149.062 41.0179 136.062 65.018C146.062 79.0179 136.762 102.259 117.562 102.518V66.5179C101.168 64.3985 96.9324 58.5956 96.0619 42.0179C87.2404 49.8491 82.2068 51.0881 73.0619 48.0179C67.8226 45.3014 62.3264 45.5179 61.0619 49.0179C53.6693 69.4805 46.9976 76.6981 27.0619 76.0419Z" fill="#2D3541" stroke="#2D3541"/>
<path d="M43.3751 87C39.375 87 35.375 81.5 35.3751 72.5L31.3751 72C26.875 72 26.875 65 31.3751 65H62.3751C66.875 65 69.3751 68 69.3751 73H71.3751V77H69.3751C68.2357 82.143 64.375 87 61.3751 87H43.3751Z" fill="#636363" stroke="#636363"/>
<path d="M100 87C104 87 108 81.5 108 72.5L112 72C116.5 72 116.5 65 112 65H81C76.5001 65 74 68 74 73H72V77H74C75.1394 82.143 79.0001 87 82 87H100Z" fill="#636363" stroke="#636363"/>
<path d="M103.028 68.0043H81.5277C78.4592 67.922 76.759 69.0043 77.0277 73.5043C77.4553 80.663 79.0277 85.0043 84.0277 85.0043H99.0277C103.528 85.0043 106.002 80.6382 106.528 73.5043C106.778 70.2696 106.028 68.0043 103.028 68.0043Z" fill="#6F6F6F" stroke="#6F6F6F"/>
<path d="M97.0277 68.0043L81.5277 84.5043C78.7821 82.044 77.805 80.4427 77.5277 77.0043L86.0277 68.0043H97.0277Z" fill="#7F7F7F" stroke="#7F7F7F"/>
<path d="M64.0277 68.0043H42.5277C39.4592 67.922 37.759 69.0043 38.0277 73.5043C38.4553 80.663 40.0277 85.0043 45.0277 85.0043H60.0277C64.5277 85.0043 67.0024 80.6382 67.5277 73.5043C67.7776 70.2696 67.0277 68.0043 64.0277 68.0043Z" fill="#6F6F6F" stroke="#6F6F6F"/>
<path d="M58.0277 68.0043L42.5277 84.5043C39.7821 82.044 38.805 80.4427 38.5277 77.0043L47.0277 68.0043H58.0277Z" fill="#7F7F7F" stroke="#7F7F7F"/>
<rect x="30" y="67" width="3" height="3" rx="1.5" fill="#D9D9D9"/>
<rect x="111" y="67" width="3" height="3" rx="1.5" fill="#D9D9D9"/>
</svg>
