<svg width="32" height="32" viewBox="0 0 32 32" fill="none" xmlns="http://www.w3.org/2000/svg">
<path fill-rule="evenodd" clip-rule="evenodd" d="M15.6919 29.9985C9.17355 29.9985 3.99724 25.4551 4.01066 18.9819C3.9746 18.3384 4.03016 17.6929 4.17553 17.0661C4.4286 15.8863 5.03825 13.5786 5.53096 11.7789C5.81278 10.747 7.65133 10.2891 8.69042 10.579C10.111 10.979 10.9776 9.71713 11.2709 8.28731C11.5919 6.64329 12.1483 5.05907 12.9217 3.58789C14.7429 0.202305 17.9542 2.81798 20.1685 5.96159C21.0763 7.182 22.118 8.28739 23.2724 9.25519C27.8735 14.0705 28.4928 22.5335 23.5638 27.0289C21.3755 28.9885 18.5755 30.0447 15.6919 29.9985Z" fill="#FF9600" stroke="#FFAD37" stroke-linecap="round" stroke-linejoin="round"/>
<path d="M19 20.2174C19 17.8985 16 15.003 15.5 15C15 14.9971 12 17.8985 12 20.2174C12 26.5942 19 26.5942 19 20.2174Z" fill="#FFC800" stroke="#FFC800"/>
</svg>
