<svg width="32" height="32" viewBox="0 0 32 32" fill="none" xmlns="http://www.w3.org/2000/svg">
<path d="M25.968 17.742L25.9679 17.742L25.9612 17.748L16.3574 26.3403L5.96936 17.7356L5.96937 17.7355L5.96666 17.7333C4.2138 16.3019 3.50018 14.5363 3.50001 12.8051C3.49984 11.0594 4.22645 9.31854 5.41138 7.9767C6.59579 6.63546 8.21172 5.72199 9.96083 5.58622C11.6962 5.45151 13.6245 6.0773 15.4639 7.92876L15.8186 8.28577L16.1733 7.92876C18.013 6.0771 19.98 5.41324 21.7708 5.50895C23.5734 5.60529 25.2491 6.47427 26.4823 7.78082C27.716 9.08793 28.4838 10.8087 28.4997 12.5755C28.5156 14.3289 27.7921 16.1683 25.968 17.742Z" fill="#FF4B4B" stroke="#FF7C7C"/>
<path d="M8.5007 12.9388C8.5 9.49993 13.5 9.49997 13.5 12.9999C13.5 16.4999 8.5 16.4999 8.5007 12.9388Z" fill="#FF8181"/>
<path d="M8.5 12.9999C8.5 12.9794 8.50023 12.959 8.5007 12.9388M8.5007 12.9388C8.5 9.49993 13.5 9.49997 13.5 12.9999C13.5 16.4999 8.5 16.4999 8.5007 12.9388Z" stroke="#FF8181"/>
</svg>
