<svg width="20" height="20" viewBox="0 0 20 20" fill="none" xmlns="http://www.w3.org/2000/svg">
<path d="M1.0009 14.5619C1.0009 14.8789 1.10889 15.1532 1.32487 15.3848C1.54085 15.6165 1.81082 15.7262 2.13479 15.714H3.25067C4.0186 15.714 4.75052 15.5616 5.44646 15.2568C6.14239 14.952 6.73633 14.5436 7.22828 14.0315C7.72023 13.5195 8.12219 12.9099 8.43416 12.2028C8.74613 11.4956 8.89611 10.758 8.88411 9.98994C8.88411 9.05117 9.20808 8.2465 9.85601 7.57595C10.5039 6.9054 11.3019 6.57012 12.2498 6.57012H14.4995V7.70397C14.4995 7.96 14.5715 8.17945 14.7155 8.36233C14.8595 8.54521 15.0215 8.67932 15.2015 8.76466C15.3815 8.85 15.5914 8.87439 15.8314 8.83781C16.0714 8.80123 16.2694 8.6976 16.4254 8.52692L18.6751 6.24094C18.9031 5.9971 19.0111 5.72279 18.9991 5.41799C18.9871 5.11319 18.8791 4.84497 18.6751 4.61333L16.4254 2.32735C16.2454 2.15667 16.0414 2.05303 15.8134 2.01646C15.5854 1.97988 15.3755 2.00427 15.1835 2.08961C14.9915 2.17495 14.8295 2.30906 14.6975 2.49194C14.5655 2.67482 14.4995 2.88818 14.4995 3.13202V4.28415H12.2498C11.4939 4.28415 10.7679 4.43655 10.072 4.74134C9.37606 5.04614 8.77612 5.44847 8.27217 5.94834C7.76822 6.4482 7.36626 7.0578 7.06629 7.77712C6.76632 8.49644 6.62234 9.23405 6.63434 9.98994C6.63434 10.9409 6.30437 11.7517 5.64444 12.4222C4.9845 13.0928 4.18658 13.4281 3.25067 13.4281H2.13479C1.82282 13.4281 1.55284 13.5378 1.32487 13.7572C1.09689 13.9767 0.988901 14.2449 1.0009 14.5619ZM1.0009 5.43628C1.0009 5.75327 1.10889 6.02149 1.32487 6.24094C1.54085 6.4604 1.81082 6.57012 2.13479 6.57012H3.25067C3.77862 6.57012 4.26457 6.68595 4.70853 6.91759C5.15248 7.14924 5.54245 7.46623 5.87841 7.86856C6.13039 7.08828 6.50235 6.38724 6.9943 5.76546C5.90241 4.77792 4.65453 4.28415 3.25067 4.28415H2.13479C1.82282 4.28415 1.55284 4.39997 1.32487 4.63162C1.09689 4.86326 0.988901 5.13148 1.0009 5.43628ZM8.52415 14.251C9.59204 15.2264 10.8339 15.714 12.2498 15.714H14.4995V16.8662C14.4995 17.11 14.5715 17.3294 14.7155 17.5245C14.8595 17.7196 15.0215 17.8537 15.2015 17.9269C15.3815 18 15.5914 18.0183 15.8314 17.9817C16.0714 17.9451 16.2694 17.8415 16.4254 17.6708L18.6751 15.3848C18.9031 15.1532 19.0111 14.8789 18.9991 14.5619C18.9871 14.2449 18.8791 13.9828 18.6751 13.7755L16.4254 11.4895C16.2454 11.3067 16.0414 11.1969 15.8134 11.1604C15.5854 11.1238 15.3755 11.1482 15.1835 11.2335C14.9915 11.3189 14.8295 11.4591 14.6975 11.6541C14.5655 11.8492 14.4995 12.0626 14.4995 12.2942V13.4281H12.2498C11.7338 13.4281 11.2479 13.3183 10.7919 13.0989C10.336 12.8794 9.952 12.5624 9.64004 12.1479C9.37606 12.9282 9.0041 13.6292 8.52415 14.251Z" fill="currentColor"/>
</svg>
